<svg xmlns="http://www.w3.org/2000/svg" xmlns:xlink="http://www.w3.org/1999/xlink" viewBox="0 0 266.47 266.48"><defs><style>.cls-1{fill:url(#Degradado_sin_nombre_30);}</style><linearGradient id="Degradado_sin_nombre_30" x1="133.24" x2="133.24" y2="266.48" gradientUnits="userSpaceOnUse"><stop offset="0.01" stop-color="#a9e34d"/><stop offset="0.51" stop-color="#76bb36"/><stop offset="1" stop-color="#499722"/></linearGradient></defs><g id="Capa_2" data-name="Capa 2"><g id="Capa_3" data-name="Capa 3"><path class="cls-1" d="M265.8,217.41a84.18,84.18,0,0,1-83.5-83.5.67.67,0,0,0-.67-.67h-47.7a.69.69,0,0,0-.69.69A132.24,132.24,0,0,0,160.06,213a83.93,83.93,0,0,1-29.45,4.36c-43.51-1.33-79.2-36.22-81.44-79.69a84.18,84.18,0,1,1,168.24-5.12.68.68,0,0,0,.68.67h47.7a.69.69,0,0,0,.68-.69C266.1,59.77,206.1,0,133.24,0,60.15,0,0,60.15,0,133.24S60.15,266.47,133.24,266.47a133.27,133.27,0,0,0,66.78-18,131.87,131.87,0,0,0,65.76,18,.69.69,0,0,0,.69-.69v-47.7A.69.69,0,0,0,265.8,217.41Z"/></g></g></svg>